<?xml version="1.0" encoding="utf-8"?>
<!-- Generator: Adobe Illustrator 26.5.3, SVG Export Plug-In . SVG Version: 6.00 Build 0)  -->
<svg version="1.1" id="Layer_1" xmlns="http://www.w3.org/2000/svg" xmlns:xlink="http://www.w3.org/1999/xlink" x="0px" y="0px"
	 viewBox="0 0 612 792" style="enable-background:new 0 0 612 792;" xml:space="preserve">
<style type="text/css">
	.st0{fill:#A75869;}
	.st1{fill:none;stroke:#FFFFFF;stroke-width:6.0189;}
	.st2{fill:none;stroke:#A75869;stroke-width:9.0284;}
	.st3{fill:#FFFFFF;}
	.st4{fill:none;stroke:#A75869;stroke-width:9.0284;stroke-linecap:round;}
	.st5{fill:none;stroke:#FFFFFF;stroke-width:9.0284;}
	.st6{fill:none;stroke:#A75869;stroke-width:0.7524;}
	.st7{fill:#7D7773;}
</style>
<polygon class="st0" points="146.19,409.41 146.19,474.19 467.21,474.19 467.21,409.41 146.19,409.41 "/>
<line class="st1" x1="165.14" y1="442.32" x2="206.22" y2="442.32"/>
<path class="st2" d="M167.44,411.18c57.53,0,104.17-31.6,104.17-70.59s-46.64-70.59-104.17-70.59c-57.53,0-104.17,31.6-104.17,70.59
	S109.9,411.18,167.44,411.18L167.44,411.18z M445.87,411.18c57.53,0,104.17-31.6,104.17-70.59s-46.64-70.59-104.17-70.59
	S341.7,301.61,341.7,340.6S388.34,411.18,445.87,411.18L445.87,411.18z"/>
<polygon class="st3" points="34,261.29 34,414.4 142.69,414.4 142.69,261.29 34,261.29 "/>
<polygon class="st3" points="471.91,264.2 471.91,414.4 576.86,414.4 576.86,264.2 471.91,264.2 "/>
<path class="st2" d="M253.57,299.97h108.34 M282.89,299.97v111.22 M307.83,300.72v111.21 M331.17,299.97v111.22"/>
<path class="st4" d="M167.44,288.14h70.96 M377.08,288.14h73.76"/>
<polygon class="st3" points="140.7,254 140.7,285.89 243.19,285.89 243.19,254 140.7,254 "/>
<polygon class="st3" points="371.12,254 371.12,285.89 475.59,285.89 475.59,254 371.12,254 "/>
<path class="st5" d="M144.94,440.81h74.51 M400.8,440.81h67.37 M168.88,441.57v39.5 M444.99,440.06v40.84"/>
<path class="st2" d="M235.09,290.4v105.99 M380.39,290.4v105.99"/>
<path class="st3" d="M195.54,459.53c0,0-10,0-10,10v2.86c0,0,0,10,10,10h223.6c0,0,10,0,10-10v-2.86c0,0,0-10-10-10H195.54
	L195.54,459.53z"/>
<path class="st5" d="M195.54,459.53c0,0-10,0-10,10v2.86c0,0,0,10,10,10h223.6c0,0,10,0,10-10v-2.86c0,0,0-10-10-10H195.54
	L195.54,459.53z"/>
<path class="st2" d="M413.16,290.4v116.29 M204.72,288.14v116.29"/>
<line class="st5" x1="116.39" y1="401.32" x2="116.39" y2="440.81"/>
<path class="st0" d="M224.04,285.51c5.48,0,9.92-3.47,9.92-7.75c0-4.28-4.44-7.75-9.92-7.75c-5.48,0-9.92,3.47-9.92,7.75
	C214.12,282.04,218.56,285.51,224.04,285.51L224.04,285.51z"/>
<path class="st6" d="M224.04,285.51c5.48,0,9.92-3.47,9.92-7.75c0-4.28-4.44-7.75-9.92-7.75c-5.48,0-9.92,3.47-9.92,7.75
	C214.12,282.04,218.56,285.51,224.04,285.51L224.04,285.51z"/>
<path class="st0" d="M390.76,285.51c5.48,0,9.92-3.47,9.92-7.75c0-4.28-4.44-7.75-9.92-7.75c-5.48,0-9.92,3.47-9.92,7.75
	C380.85,282.04,385.29,285.51,390.76,285.51L390.76,285.51z"/>
<path class="st6" d="M390.76,285.51c5.48,0,9.92-3.47,9.92-7.75c0-4.28-4.44-7.75-9.92-7.75c-5.48,0-9.92,3.47-9.92,7.75
	C380.85,282.04,385.29,285.51,390.76,285.51L390.76,285.51z"/>
<path class="st2" d="M184.03,290.4v116.29 M433.31,290.38v116.29"/>
<line class="st4" x1="141.96" y1="408.94" x2="147.93" y2="409.89"/>
<line class="st4" x1="471.07" y1="408.94" x2="465.1" y2="409.89"/>
<path class="st0" d="M117.55,504.04v-0.07c0-4.14-2.71-5.87-7.53-7.12c-4.11-1.05-5.12-1.56-5.12-3.12v-0.07
	c0-1.15,1.05-2.07,3.05-2.07c2,0,4.07,0.88,6.18,2.34l2.71-3.94c-2.41-1.93-5.36-3.02-8.82-3.02c-4.85,0-8.31,2.85-8.31,7.16v0.07
	c0,4.72,3.09,6.04,7.87,7.26c3.97,1.02,4.78,1.7,4.78,3.02v0.07c0,1.39-1.29,2.24-3.43,2.24c-2.71,0-4.95-1.12-7.09-2.88l-3.09,3.7
	c2.85,2.55,6.48,3.8,10.08,3.8C113.95,511.4,117.55,508.75,117.55,504.04L117.55,504.04z M146.96,499.18v-0.07
	c0-6.75-5.26-12.21-12.59-12.21c-7.33,0-12.66,5.53-12.66,12.28v0.07c0,6.75,5.26,12.21,12.59,12.21
	C141.64,511.47,146.96,505.94,146.96,499.18L146.96,499.18z M141.5,499.25c0,4.07-2.92,7.4-7.12,7.4c-4.21,0-7.19-3.39-7.19-7.46
	v-0.07c0-4.07,2.92-7.4,7.12-7.4s7.19,3.39,7.19,7.47V499.25L141.5,499.25z M175.36,511.06v-23.75h-5.63l-6.24,10.04l-6.24-10.04
	h-5.63v23.75h5.12v-15.4l6.62,10.04h0.13l6.68-10.14v15.51H175.36L175.36,511.06z M200.84,511.06v-4.65h-12.89v-4.99h11.2v-4.65
	h-11.2v-4.82h12.72v-4.65h-17.92v23.75H200.84L200.84,511.06z M227.72,511.06l-5.8-8.48c3.02-1.12,5.09-3.53,5.09-7.36v-0.07
	c0-4.89-3.36-7.84-8.96-7.84h-10.86v23.75h5.22v-7.6h4.11l5.09,7.6H227.72L227.72,511.06z M221.71,495.49c0,2-1.46,3.36-4,3.36
	h-5.29v-6.82h5.19c2.54,0,4.1,1.15,4.1,3.39V495.49L221.71,495.49z M254.52,487.31h-5.63l-6.21,16.73l-6.21-16.73h-5.77l9.6,23.92
	h4.61L254.52,487.31L254.52,487.31z M265.34,511.06v-23.75h-5.22v23.75H265.34L265.34,511.06z M290.04,511.06v-4.75H278.2v-19h-5.23
	v23.75H290.04L290.04,511.06z M312.74,511.06v-4.75H300.9v-19h-5.22v23.75H312.74L312.74,511.06z M336.46,511.06v-4.65h-12.89v-4.99
	h11.2v-4.65h-11.2v-4.82h12.72v-4.65h-17.92v23.75H336.46L336.46,511.06z M378.43,511.06v-23.75h-5.63l-6.24,10.04l-6.24-10.04
	h-5.63v23.75h5.12v-15.4l6.62,10.04h0.14l6.68-10.14v15.51H378.43L378.43,511.06z M406.15,500.71v-13.4h-5.22v13.61
	c0,3.77-1.93,5.7-5.12,5.7c-3.19,0-5.12-2-5.12-5.87v-13.44h-5.23v13.57c0,6.99,3.9,10.55,10.28,10.55
	C402.12,511.43,406.15,507.9,406.15,500.71L406.15,500.71z M430.34,504.04v-0.07c0-4.14-2.71-5.87-7.53-7.12
	c-4.11-1.05-5.12-1.56-5.12-3.12v-0.07c0-1.15,1.05-2.07,3.05-2.07s4.07,0.88,6.18,2.34l2.71-3.94c-2.41-1.93-5.36-3.02-8.82-3.02
	c-4.85,0-8.31,2.85-8.31,7.16v0.07c0,4.72,3.09,6.04,7.87,7.26c3.97,1.02,4.78,1.7,4.78,3.02v0.07c0,1.39-1.29,2.24-3.43,2.24
	c-2.71,0-4.95-1.12-7.09-2.88l-3.09,3.7c2.85,2.55,6.48,3.8,10.08,3.8C426.75,511.4,430.34,508.75,430.34,504.04L430.34,504.04z
	 M454.67,511.06v-4.65h-12.89v-4.99h11.2v-4.65h-11.2v-4.82h12.72v-4.65h-17.92v23.75H454.67L454.67,511.06z M481.34,500.71v-13.4
	h-5.23v13.61c0,3.77-1.93,5.7-5.12,5.7c-3.19,0-5.12-2-5.12-5.87v-13.44h-5.23v13.57c0,6.99,3.9,10.55,10.28,10.55
	C477.3,511.43,481.34,507.9,481.34,500.71L481.34,500.71z M512.11,511.06v-23.75h-5.63l-6.24,10.04L494,487.31h-5.63v23.75h5.12
	v-15.4l6.62,10.04h0.14l6.68-10.14v15.51H512.11L512.11,511.06z"/>
<polygon class="st3" points="211.37,409.41 211.37,445.33 219.45,445.33 219.45,409.41 211.37,409.41 "/>
<polygon class="st3" points="393.79,409.41 393.79,445.33 401.88,445.33 401.88,409.41 393.79,409.41 "/>
<g>
	<path class="st7" d="M185.17,545.74c-1.9,2.01-3.83,3.03-4.89,3.03c-0.88,0-1.27-0.81-0.72-3.21l1.54-6.54
		c0.3-1.29,0.15-1.8-0.27-1.8c-1.12,0-3.83,2.64-5.31,5.04c-0.36,1.47-0.91,4.32-1.21,5.91c-1,0.09-2.08,0.36-3.02,0.6l-0.21-0.24
		c1.27-5.73,2.48-11.49,3.65-17.7c0.27-1.47,0.03-1.59-1.21-1.62l-0.72-0.03l0.21-0.9c2.81-0.24,4.62-1.05,5.1-1.05
		c0.36,0,0.42,0.24,0.24,1.05l-2.5,11.79h0.06c1.87-2.37,3.62-3.72,4.89-4.44c0.75-0.45,1.66-0.78,2.32-0.78
		c0.75,0,1.87,0.48,1,4.23l-1.33,5.88c-0.21,0.9-0.15,1.17,0.06,1.17c0.27,0,1.18-0.54,1.9-1.2L185.17,545.74z"/>
	<path class="st7" d="M194.1,545.59c-1.72,1.92-4.01,3.18-4.98,3.18c-0.78,0-1.36-0.57-0.72-3.12l1.69-7.05
		c0.15-0.75,0.18-1.02,0-1.05c-0.27,0-1.15,0.51-1.93,1.14l-0.39-0.78c1.99-1.86,4.17-3.06,5.16-3.06c0.78,0,0.91,1.11,0.48,2.76
		l-1.84,7.41c-0.21,0.81-0.15,1.11,0.06,1.11c0.3,0,1.18-0.57,1.99-1.26L194.1,545.59z M193.13,528.76c1.03,0,1.54,0.78,1.54,1.65
		c0,1.08-0.81,2.1-1.96,2.1c-0.94,0-1.63-0.63-1.63-1.65c0-0.9,0.72-2.1,2.02-2.1H193.13z"/>
	<path class="st7" d="M203.42,534.85c1.51,0,2.63,0.9,2.63,1.86c0.03,0.57-0.36,1.14-0.94,1.5c-0.33,0.24-0.6,0.18-0.78-0.09
		c-0.63-0.81-1.48-1.59-2.6-1.59c-0.78,0-1.33,0.51-1.33,1.29c0,0.9,0.94,1.68,2.08,2.46c1.75,1.2,2.78,2.22,2.78,3.72
		c0,2.55-3.32,4.77-5.86,4.77c-1.6,0-3.35-1.05-3.38-2.31c0-0.63,0.48-1.26,1-1.56c0.45-0.24,0.69-0.21,0.94,0.09
		c1,1.26,2.23,2.07,3.26,2.07c0.94,0,1.6-0.57,1.6-1.35c0-0.63-0.39-1.23-1.87-2.34c-1.36-0.99-2.9-2.07-2.9-3.84
		c0-1.02,0.39-2.07,1.78-3.18c1.06-0.84,2.48-1.5,3.56-1.5H203.42z"/>
	<path class="st7" d="M216.61,536.59l-2.87,0.12l-1.63,7.8c-0.3,1.38-0.15,1.77,0.15,1.77c0.45,0,1.81-0.9,2.57-1.62l0.45,0.72
		c-1.09,1.44-3.65,3.39-5.31,3.39c-0.97,0-1.6-0.99-0.91-4.17l1.69-7.89h-2.17l-0.15-0.3l0.81-1.05h1.81l0.66-2.79l3.08-2.07
		l0.33,0.24l-1.06,4.62h3.38L216.61,536.59z"/>
	<path class="st7" d="M226.18,534.85c2.81,0,4.32,1.86,4.32,4.74c0,2.61-1.06,5.46-3.23,7.26c-1.3,1.11-3.17,1.92-4.98,1.92
		c-3.35,0-4.35-2.49-4.35-4.83c0-3.9,2.17-6.78,4.53-8.01c1.18-0.66,2.54-1.08,3.68-1.08H226.18z M225.06,536.11
		c-0.27,0-0.6,0.06-0.88,0.18c-0.94,0.45-2.84,2.94-2.84,7.77c0,2.25,0.94,3.42,2.08,3.42c0.36,0,0.57-0.06,0.85-0.15
		c1.33-0.54,2.81-3.72,2.81-7.8c0-2.37-0.88-3.42-1.99-3.42H225.06z"/>
	<path class="st7" d="M238.13,539.71c1.48-2.76,3.11-4.86,4.38-4.86c0.54,0,1.09,0.33,1.39,0.78c0.33,0.48,0.27,1.11-0.09,1.65
		c-0.33,0.54-0.63,0.87-0.97,1.14c-0.27,0.18-0.51,0.21-0.72,0c-0.36-0.36-0.78-0.54-1.15-0.54c-0.3,0-0.66,0.18-1.3,1.05
		c-0.75,1.02-1.54,2.43-1.87,3.45c-0.42,1.74-0.88,4.02-1.18,5.76c-0.97,0.12-2.14,0.36-2.96,0.6l-0.24-0.24
		c0.75-3.15,1.48-6.45,2.08-9.66c0.18-0.96,0.18-1.35-0.06-1.35c-0.27,0-1.3,0.6-1.93,1.2l-0.45-0.78c1.69-1.74,3.68-3.06,4.71-3.06
		c0.84,0,1.03,1.14,0.54,3.48l-0.3,1.38H238.13z"/>
	<path class="st7" d="M252.46,545.74c1.48-2.19,3.56-5.34,3.56-7.47c-0.03-0.72-0.27-1.17-0.42-1.53c-0.09-0.33-0.06-0.66,0.09-0.96
		c0.3-0.54,0.91-0.93,1.51-0.93c0.72,0,1.42,0.66,1.45,1.89c0,0.84-0.33,1.92-1.15,3.3c-1.36,2.28-3.41,5.28-5.1,7.65
		c-1.78,2.52-3.62,5.04-5.58,7.26l-3.68,0.9l-0.24-0.75c3.17-2.07,5.22-3.93,6.82-6.03c0.03-2.4-0.51-7.29-1.03-10.02
		c-0.21-1.2-0.42-1.53-0.63-1.53s-0.85,0.54-1.66,1.62l-0.6-0.78c1.18-1.86,2.84-3.51,4.07-3.51c1,0,1.57,1.08,1.9,3.84
		c0.3,2.4,0.48,4.53,0.63,7.05H252.46z"/>
	<path class="st7" d="M303.28,545.38c-1.9,2.28-4.07,3.39-5.01,3.39c-0.66,0-1.24-0.42-0.72-2.97l0.42-2.04h-0.09
		c-1.09,1.53-2.29,2.7-3.29,3.54c-0.94,0.78-2.11,1.47-3.08,1.47c-1.06,0-1.99-1.2-1.99-3.57c0-2.91,1.36-6,3.44-7.8
		c1.42-1.26,3.86-2.55,6.13-2.55h0.03c0.6,0,1.24,0.09,1.9,0.21c0.6,0.12,1.09,0.18,1.54,0.21l0.15,0.12
		c-0.57,2.34-1.39,5.85-2.02,9.48c-0.18,0.93-0.12,1.23,0.06,1.23c0.27,0,1.33-0.75,2.08-1.5L303.28,545.38z M297.58,536.29
		c-0.66,0-1.18,0.15-1.63,0.48c-1.96,1.41-3.02,5.07-3.02,7.77c0,1.26,0.27,1.8,0.72,1.8c1.09,0,4.01-3.51,4.68-4.95
		c0.39-1.38,0.91-3.75,1.06-4.68c-0.39-0.24-1.15-0.42-1.78-0.42H297.58z"/>
	<path class="st7" d="M310.4,539.71c1.48-2.76,3.11-4.86,4.38-4.86c0.54,0,1.09,0.33,1.39,0.78c0.33,0.48,0.27,1.11-0.09,1.65
		c-0.33,0.54-0.63,0.87-0.97,1.14c-0.27,0.18-0.51,0.21-0.72,0c-0.36-0.36-0.78-0.54-1.15-0.54c-0.3,0-0.66,0.18-1.3,1.05
		c-0.75,1.02-1.54,2.43-1.87,3.45c-0.42,1.74-0.88,4.02-1.18,5.76c-0.97,0.12-2.14,0.36-2.96,0.6l-0.24-0.24
		c0.75-3.15,1.48-6.45,2.08-9.66c0.18-0.96,0.18-1.35-0.06-1.35c-0.27,0-1.3,0.6-1.93,1.2l-0.45-0.78c1.69-1.74,3.68-3.06,4.71-3.06
		c0.84,0,1.03,1.14,0.54,3.48l-0.3,1.38H310.4z"/>
	<path class="st7" d="M326.67,536.59l-2.87,0.12l-1.63,7.8c-0.3,1.38-0.15,1.77,0.15,1.77c0.45,0,1.81-0.9,2.57-1.62l0.45,0.72
		c-1.09,1.44-3.65,3.39-5.31,3.39c-0.97,0-1.6-0.99-0.91-4.17l1.69-7.89h-2.17l-0.15-0.3l0.81-1.05h1.81l0.66-2.79l3.08-2.07
		l0.33,0.24l-1.06,4.62h3.38L326.67,536.59z"/>
	<path class="st7" d="M367.41,545.35c-1.99,2.25-4.35,3.42-6.22,3.42c-2.23,0-3.56-1.59-3.56-4.47c0-2.52,1.12-5.37,3.23-7.23
		c1.3-1.14,3.44-2.22,5.07-2.22c1.39,0,2.54,0.72,2.54,1.65c0.03,0.54-0.33,1.2-1.18,1.68c-0.3,0.21-0.57,0.18-0.81-0.12
		c-0.75-1.17-1.54-1.68-2.35-1.68c-0.72,0-1.36,0.6-1.87,1.59c-0.69,1.32-1.21,3.36-1.21,5.52s0.75,3.12,1.99,3.12
		c1.39,0,3.14-1.32,3.86-2.04L367.41,545.35z"/>
	<path class="st7" d="M384.55,545.53c-1.93,2.19-3.86,3.24-4.89,3.24c-0.88,0-1.21-0.9-0.69-3.09c0.18-0.75,0.33-1.44,0.45-2.16
		h-0.03c-1.81,2.37-3.59,3.84-4.71,4.53c-0.72,0.48-1.51,0.72-2.2,0.72c-0.88,0-1.96-0.57-1.12-4.17c0.48-1.98,0.94-3.96,1.39-5.97
		c0.21-0.9,0.18-1.11,0-1.23c-0.24,0-1.09,0.63-1.93,1.29l-0.36-0.84c1.87-1.8,3.89-3,4.92-3c0.82,0,1.06,0.69,0.54,2.91
		c-0.51,2.19-1.03,4.44-1.54,6.6c-0.3,1.41-0.15,1.92,0.3,1.92c1.48,0,4.32-3.63,5.13-5.13c0.42-1.74,0.85-3.6,1.24-5.49l2.87-0.81
		h0.39c-0.78,3.09-1.57,6.33-2.26,9.99c-0.18,0.99-0.15,1.26,0.06,1.26c0.24,0,1.24-0.63,1.99-1.38L384.55,545.53z"/>
	<path class="st7" d="M393.24,545.62c-1.81,2.01-4.01,3.15-5.01,3.15c-0.72,0-1.3-0.66-0.63-3.81c0.97-4.68,1.9-9.33,2.87-13.98
		c0.33-1.5,0.18-1.71-1.09-1.77l-0.84-0.06l0.15-0.84c2.72-0.24,4.68-1.08,5.13-1.08c0.36,0,0.39,0.3,0.24,1.05
		c-1.15,5.58-2.32,11.16-3.47,16.8c-0.21,0.84-0.12,1.14,0.09,1.14c0.27,0,1.3-0.63,2.11-1.38L393.24,545.62z"/>
	<path class="st7" d="M403.95,536.59l-2.87,0.12l-1.63,7.8c-0.3,1.38-0.15,1.77,0.15,1.77c0.45,0,1.81-0.9,2.57-1.62l0.45,0.72
		c-1.09,1.44-3.65,3.39-5.31,3.39c-0.97,0-1.6-0.99-0.91-4.17l1.69-7.89h-2.17l-0.15-0.3l0.81-1.05h1.81l0.66-2.79l3.08-2.07
		l0.33,0.24l-1.06,4.62h3.38L403.95,536.59z"/>
	<path class="st7" d="M419.8,545.53c-1.93,2.19-3.86,3.24-4.89,3.24c-0.88,0-1.21-0.9-0.69-3.09c0.18-0.75,0.33-1.44,0.45-2.16
		h-0.03c-1.81,2.37-3.59,3.84-4.71,4.53c-0.72,0.48-1.51,0.72-2.2,0.72c-0.88,0-1.96-0.57-1.12-4.17c0.48-1.98,0.94-3.96,1.39-5.97
		c0.21-0.9,0.18-1.11,0-1.23c-0.24,0-1.09,0.63-1.93,1.29l-0.36-0.84c1.87-1.8,3.89-3,4.92-3c0.82,0,1.06,0.69,0.54,2.91
		c-0.51,2.19-1.03,4.44-1.54,6.6c-0.3,1.41-0.15,1.92,0.3,1.92c1.48,0,4.32-3.63,5.13-5.13c0.42-1.74,0.85-3.6,1.24-5.49l2.87-0.81
		h0.39c-0.78,3.09-1.57,6.33-2.26,9.99c-0.18,0.99-0.15,1.26,0.06,1.26c0.24,0,1.24-0.63,1.99-1.38L419.8,545.53z"/>
	<path class="st7" d="M427.28,539.71c1.48-2.76,3.11-4.86,4.38-4.86c0.54,0,1.09,0.33,1.39,0.78c0.33,0.48,0.27,1.11-0.09,1.65
		c-0.33,0.54-0.63,0.87-0.97,1.14c-0.27,0.18-0.51,0.21-0.72,0c-0.36-0.36-0.79-0.54-1.15-0.54c-0.3,0-0.66,0.18-1.3,1.05
		c-0.75,1.02-1.54,2.43-1.87,3.45c-0.42,1.74-0.88,4.02-1.18,5.76c-0.97,0.12-2.14,0.36-2.96,0.6l-0.24-0.24
		c0.75-3.15,1.48-6.45,2.08-9.66c0.18-0.96,0.18-1.35-0.06-1.35c-0.27,0-1.3,0.6-1.93,1.2l-0.45-0.78c1.69-1.74,3.68-3.06,4.71-3.06
		c0.85,0,1.03,1.14,0.54,3.48l-0.3,1.38H427.28z"/>
	<path class="st7" d="M444.27,545.17c-2.69,2.79-4.98,3.6-6.82,3.6c-1.66,0-3.59-0.9-3.59-4.44c0-2.82,1.27-5.88,3.56-7.65
		c1.24-0.96,3.14-1.83,4.65-1.83c1.96,0,2.96,1.17,2.96,2.52c0,3.06-4.83,4.59-7.82,5.37c-0.03,0.33-0.03,0.6-0.03,0.84
		c0,1.56,0.54,3.03,2.17,3.03c1.21,0,2.93-0.84,4.38-2.25L444.27,545.17z M440.83,536.17c-0.33,0-0.72,0.12-1.03,0.33
		c-0.72,0.45-2.05,2.04-2.47,5.19c3.62-1.08,4.77-2.37,4.77-3.9c0-1.14-0.69-1.62-1.24-1.62H440.83z"/>
</g>
<ellipse class="st7" cx="272.5" cy="540" rx="2.51" ry="2.5"/>
<ellipse class="st7" cx="342.14" cy="540" rx="2.51" ry="2.5"/>
</svg>
